<svg xmlns="http://www.w3.org/2000/svg" version="1.1" xmlns:xlink="http://www.w3.org/1999/xlink" xmlns:svgjs="http://svgjs.dev/svgjs" width="1440" height="560" preserveAspectRatio="none" viewBox="0 0 1440 560"><g mask="url(&quot;#SvgjsMask1003&quot;)" fill="none"><path d="M1512 560L0 560 L0 366.11Q20.26 314.37, 72 334.63Q118.14 308.77, 144 354.91Q187.25 326.17, 216 369.42Q237.42 270.84, 336 292.26Q402.66 238.92, 456 305.59Q532.5 262.1, 576 338.6Q652.54 295.14, 696 371.69Q720.63 276.31, 816 300.94Q886.5 251.44, 936 321.94Q980.63 294.57, 1008 339.2Q1019.74 278.94, 1080 290.68Q1148.42 239.1, 1200 307.52Q1288.97 276.49, 1320 365.45Q1343.58 269.02, 1440 292.6Q1487.72 268.33, 1512 316.05z" fill="#182f5d"></path><path d="M1512 560L0 560 L0 436.42Q18.33 334.75, 120 353.08Q189.22 302.3, 240 371.53Q309.13 320.66, 360 389.8Q424.83 382.63, 432 447.47Q445.24 388.71, 504 401.94Q514.67 340.61, 576 351.28Q643.37 298.65, 696 366.02Q792.18 342.2, 816 438.39Q838.1 388.49, 888 410.59Q910.71 361.3, 960 384.02Q1042.54 346.56, 1080 429.1Q1105.19 334.29, 1200 359.48Q1246.94 334.43, 1272 381.37Q1358.32 347.69, 1392 434.01Q1433.24 355.25, 1512 396.49z" fill="#25467d"></path><path d="M1512 560L0 560 L0 445.65Q50.55 376.19, 120 426.74Q200.09 386.83, 240 466.92Q291.54 398.46, 360 450Q426 444, 432 510.01Q481.14 439.15, 552 488.3Q582.18 446.48, 624 476.66Q632.38 413.04, 696 421.42Q750.86 404.28, 768 459.14Q852.13 423.26, 888 507.39Q911.58 458.97, 960 482.54Q993.58 396.12, 1080 429.69Q1132.12 409.81, 1152 461.93Q1219.18 409.11, 1272 476.29Q1341.01 425.31, 1392 494.32Q1418.2 400.52, 1512 426.72z" fill="#356cb1"></path><path d="M1464 560L0 560 L0 535.78Q46.44 510.22, 72 556.67Q110.67 475.34, 192 514Q240.97 490.97, 264 539.94Q293.76 497.7, 336 527.46Q414.07 485.53, 456 563.59Q462.18 497.77, 528 503.95Q569.71 473.66, 600 515.37Q656.07 499.44, 672 555.51Q706.46 469.97, 792 504.43Q822.4 462.84, 864 493.24Q929.03 486.27, 936 551.31Q988.7 484, 1056 536.7Q1072.27 480.97, 1128 497.23Q1173.03 470.26, 1200 515.29Q1268.61 511.9, 1272 580.51Q1313.98 502.49, 1392 544.47Q1421.78 502.25, 1464 532.02z" fill="white"></path></g><defs><mask id="SvgjsMask1003"><rect width="1440" height="560" fill="#ffffff"></rect></mask></defs></svg>