<svg xmlns="http://www.w3.org/2000/svg" version="1.1" xmlns:xlink="http://www.w3.org/1999/xlink" xmlns:svgjs="http://svgjs.dev/svgjs" width="1440" height="700" preserveAspectRatio="none" viewBox="0 0 1440 700"><g mask="url(&quot;#SvgjsMask1008&quot;)" fill="none"><path d="M1464 700L0 700 L0 440.99Q16.11 385.1, 72 401.2Q146.22 355.42, 192 429.64Q243.88 361.52, 312 413.41Q321.98 351.39, 384 361.37Q449.74 307.11, 504 372.85Q579.54 376.39, 576 451.93Q561.04 364.97, 648 350.01Q717.15 347.16, 720 416.31Q732.33 356.63, 792 368.96Q835.44 340.4, 864 383.84Q956.53 356.38, 984 448.91Q997.8 390.71, 1056 404.51Q1086.28 362.79, 1128 393.08Q1179.57 372.64, 1200 424.21Q1228.61 380.81, 1272 409.42Q1308.06 325.48, 1392 361.53Q1433.26 330.78, 1464 372.04z" fill="#182f5d"></path><path d="M1488 700L0 700 L0 557.53Q19.91 457.44, 120 477.35Q163.58 400.94, 240 444.52Q337.94 422.46, 360 520.4Q390.46 430.86, 480 461.31Q528.85 438.16, 552 487.01Q644.25 459.26, 672 551.52Q689.12 496.63, 744 513.75Q791.04 440.79, 864 487.83Q953.83 457.65, 984 547.48Q1003.94 495.42, 1056 515.36Q1078.4 465.76, 1128 488.17Q1157.52 445.69, 1200 475.21Q1230.38 433.59, 1272 463.97Q1297.76 417.73, 1344 443.48Q1402.12 429.6, 1416 487.71Q1445.36 445.06, 1488 474.42z" fill="#25467d"></path><path d="M1488 700L0 700 L0 540.41Q39.08 507.49, 72 546.57Q182.31 536.88, 192 647.2Q230.1 565.3, 312 603.39Q383.84 555.23, 432 627.07Q473.42 596.49, 504 637.91Q520.61 582.52, 576 599.13Q604.88 508.01, 696 536.89Q745.29 514.18, 768 563.47Q820.97 544.44, 840 597.42Q883.24 568.65, 912 611.89Q949.54 529.43, 1032 566.98Q1079.42 494.4, 1152 541.83Q1247.45 517.28, 1272 612.73Q1285.21 553.94, 1344 567.15Q1370.01 521.15, 1416 547.16Q1468.82 527.98, 1488 580.8z" fill="#356cb1"></path><path d="M1464 700L0 700 L0 645.93Q72.5 598.42, 120 670.92Q210.11 641.02, 240 731.13Q255.6 674.73, 312 690.32Q356.45 614.77, 432 659.21Q450.57 605.78, 504 624.34Q575.61 575.95, 624 647.56Q673.08 624.63, 696 673.71Q737.08 642.79, 768 683.86Q814.07 657.93, 840 704Q865.34 609.34, 960 634.67Q1012.5 567.17, 1080 619.68Q1174.75 594.43, 1200 689.19Q1209.01 626.2, 1272 635.21Q1302.8 594.01, 1344 624.81Q1423.45 584.26, 1464 663.71z" fill="white"></path></g><defs><mask id="SvgjsMask1008"><rect width="1440" height="700" fill="#ffffff"></rect></mask></defs></svg>